# xmcd CD database file
#
# Track frame offsets:
#	150
#	17880
#	39980
#	59312
#	79053
#	100625
#	121486
#	140022
#	159127
#	180547
#	196159
#	223540
#	238019
#	253342
#
# Disc length: 3581 seconds
#
# Revision: 0
# Processed by: cddbd v1.4PL0 Copyright (c) Steve Scherf et al.
# Submitted via: NeoAudio 9.9.9
#
DISCID=b90dfb0e
DTITLE=Magnolia Jazzband - In That Sweet Old Garden of Eden
DYEAR=2002
DGENRE=Jazz
TTITLE0=Salme 148  (Anders Frostenson - Lennart JerneStrand)
TTITLE1=In the sweet ye and bye (S.F.Bennett - J.P.Webster)
TTITLE2=I Balladetone (Edvard Grieg)
TTITLE3=Bred Dina vida Vingar - The holy Wings, O Savior (Lina Sandell- Trad)
TTITLE4=Sus fra Varaldskog (Jenny Rogstad - Trad)
TTITLE5=O Jesus, Du som fyller alt i all (Åge Samuelsen)
TTITLE6=Det er makt i de foldede hender (Trygve Bjerkreim/Øivind Tønnessen)
TTITLE7=Lily of the valley (Hays - Fry)
TTITLE8=Sakl vi ustridig hist (Henning Sommero - Trad)
TTITLE9=Blott en dag - Day by Day (Lina Sandell - Oscar Ahmfeldt)
TTITLE10=Gje me hand di - In Sally's garden (Trad)
TTITLE11=We shall walk through the streets of the city (Trad)
TTITLE12=Only a look (Trad)
TTITLE13=Over in the glory land (Emmet S.Dean - Jas.W.Acuff)
EXTD=YEAR: 2002
EXTT0=
EXTT1=
EXTT2=
EXTT3=
EXTT4=
EXTT5=
EXTT6=
EXTT7=
EXTT8=
EXTT9=
EXTT10=
EXTT11=
EXTT12=
EXTT13=
PLAYORDER=
